<?xml version="1.0" encoding="UTF-8"?>
<svg id="Ai" xmlns="http://www.w3.org/2000/svg" viewBox="0 0 512 512">
  <g>
    <polygon points="253.19 202.16 207.3 114.87 58.88 397.13 140.63 397.13 253.19 202.16"/>
    <polygon points="291.07 397.13 355.71 397.13 259.96 215.03 222.95 279.14 291.07 397.13"/>
  </g>
  <g>
    <rect x="398.36" y="241.17" width="54.59" height="155.96" rx="6.13" ry="6.13"/>
    <path d="M429.64,161.98s-31.45,25.12-31.45,40.29,12.3,27.46,27.46,27.46,27.46-12.3,27.46-27.46-23.48-40.29-23.48-40.29ZM425.66,219.46c-5.72,0-10.36-4.64-10.36-10.36s11.86-15.2,11.86-15.2c0,0,8.86,9.48,8.86,15.2s-4.64,10.36-10.36,10.36Z"/>
  </g>
</svg>