<?xml version="1.0" encoding="UTF-8"?>
<svg id="_レイヤー_1" data-name="レイヤー 1" xmlns="http://www.w3.org/2000/svg" viewBox="0 0 1024 1280">
  <defs>
    <style>
      .cls-1 {
        fill-rule: evenodd;
      }
    </style>
  </defs>
  <path class="cls-1" d="M354.97,546.04c-30.68-19.99-50.97-54.61-50.97-93.96,0-61.9,50.18-112.07,112.07-112.07h192.01c61.89,0,112.07,50.18,112.07,112.07,0,39.35-20.28,73.97-50.97,93.96,30.68,19.99,50.97,54.61,50.97,93.96,0,61.9-50.18,112.07-112.07,112.07h-2.04c-29.26,0-55.9-11.21-75.86-29.57v104.41c0,62.59-51.27,113.09-113.61,113.09s-112.58-50.05-112.58-112.07c0-39.35,20.28-73.97,50.97-93.96-30.68-19.99-50.97-54.61-50.97-93.96s20.29-73.97,50.97-93.96ZM530.18,640c0,41.9,33.96,75.86,75.86,75.86h2.04c41.89,0,75.86-33.96,75.86-75.86s-33.96-75.86-75.86-75.86h-2.04c-41.89,0-75.86,33.96-75.86,75.86ZM493.97,564.14h-77.9c-41.9,0-75.86,33.96-75.86,75.86s33.83,75.72,75.6,75.86h78.15v-151.71ZM416.07,752.07h-.26c-41.78.14-75.6,34.05-75.6,75.86s34.34,75.86,76.37,75.86,77.39-34.55,77.39-76.88v-74.83h-77.9ZM493.97,527.93h-77.9c-41.9,0-75.86-33.96-75.86-75.86s33.96-75.86,75.86-75.86h77.9v151.71ZM608.09,527.93h-77.9v-151.71h77.9c41.89,0,75.86,33.96,75.86,75.86s-33.96,75.86-75.86,75.86Z"/>
</svg>