<?xml version="1.0" encoding="UTF-8"?>
<svg id="_レイヤー_6" data-name="レイヤー 6" xmlns="http://www.w3.org/2000/svg" width="512" height="512" viewBox="0 0 512 512">
  <g>
    <path d="M408.36,208.87c-4.23,0-8.15,2.75-9.45,7-1.58,5.21,1.36,10.73,6.57,12.32s10.73-1.36,12.32-6.57c.29-.95.43-1.92.43-2.87,0-4.23-2.74-8.15-7-9.45-.96-.29-1.92-.43-2.87-.43ZM397.96,215.58c1.74-5.73,7.82-8.98,13.56-7.23,5.73,1.74,8.98,7.83,7.23,13.56-.71,2.34-2.15,4.27-3.99,5.61s-4.08,2.1-6.41,2.1c-1.05,0-2.11-.15-3.16-.47-5.73-1.75-8.98-7.83-7.23-13.57Z" stroke="#86b3e0" stroke-miterlimit="10"/>
    <path d="M408.35,229.62c2.33,0,4.57-.76,6.41-2.1s3.28-3.27,3.99-5.61c1.75-5.73-1.5-11.82-7.23-13.56-5.74-1.75-11.82,1.5-13.56,7.23-1.75,5.74,1.5,11.82,7.23,13.57,1.05.32,2.11.47,3.16.47ZM388.62,199.47c19.21-10.67,47.03,1.66,85.03,37.68-25.12-2.63-40.98,2.72-48.42,16.27-9.54,12.26-9.93,29.95-10.35,48.69-.4,17.88-.81,36.37-8.8,52.78-11.71,27.89-36.4,48.84-75.46,64.03-31.49,12.25-72.23,20.81-128.06,26.89,45.54-26.88,89.46-56.35,105.12-89.81,4.46-12.39,3.86-27.69-1.79-45.47-8.35-26.26-25.82-49.47-49.21-65.36-24.19-16.45-60.16-36.59-94.08-39.18-6.16-.47-12.84-1.36-20.41-2.7-57.46-10.19-87.1-28.51-93.29-57.68-5.1-18.2-8.8-43.68-11.3-77.82,18.79,35.17,44.91,60.7,77.66,75.9,27.53,12.73,42.53,12.56,61.53,12.35,19.04-.21,40.63-.46,81.64,12.02,51.37,15.8,82.35,48.04,94.68,98.56l.58,2.36.4-2.4c6.23-37.36,17.52-59.31,34.49-67.09l.04-.02Z" fill="#86b3e0" stroke="#86b3e0" stroke-miterlimit="10"/>
    <path d="M473.65,237.15c-38-36.02-65.82-48.35-85.03-37.68l-.04.02c-16.97,7.78-28.26,29.73-34.49,67.09l-.4,2.4-.58-2.36c-12.33-50.52-43.31-82.76-94.68-98.56-41.01-12.48-62.6-12.23-81.64-12.02-19,.21-34,.38-61.53-12.35-32.75-15.2-58.87-40.73-77.66-75.9,2.5,34.14,6.2,59.62,11.3,77.82,6.19,29.17,35.83,47.49,93.29,57.68,7.57,1.34,14.25,2.23,20.41,2.7,33.92,2.59,69.89,22.73,94.08,39.18,23.39,15.89,40.86,39.1,49.21,65.36,5.65,17.78,6.25,33.08,1.79,45.47-15.66,33.46-59.58,62.93-105.12,89.81,55.83-6.08,96.57-14.64,128.06-26.89,39.06-15.19,63.75-36.14,75.46-64.03,7.99-16.41,8.4-34.9,8.8-52.78.42-18.74.81-36.43,10.35-48.69,7.44-13.55,23.3-18.9,48.42-16.27ZM388.15,198.59c19.82-10.99,48.37,1.72,87.26,38.85l1.08,1.03-1.48-.17c-25.52-2.94-41.54,2.18-48.95,15.67-9.37,12.06-9.77,29.6-10.18,48.16-.4,17.99-.82,36.59-8.89,53.17-11.81,28.13-36.68,49.26-76.01,64.55-32,12.45-73.51,21.09-130.62,27.2l-2.3.25,2-1.17c46.1-27.12,90.94-56.85,106.7-90.52,4.36-12.13,3.76-27.21-1.83-44.78-8.27-26.04-25.61-49.07-48.81-64.84-24.1-16.37-59.89-36.43-93.6-39.01-6.19-.47-12.9-1.36-20.51-2.7-57.91-10.28-87.8-28.84-94.08-58.43-5.23-18.66-8.99-44.96-11.49-80.37l-.17-2.41,1.11,2.14c18.76,36.07,45.1,62.16,78.3,77.57,27.32,12.64,42.23,12.47,61.1,12.26,19.11-.22,40.78-.46,81.94,12.07,50.96,15.67,81.99,47.4,94.78,96.97,6.38-36.28,17.72-57.72,34.65-65.49Z" stroke="#86b3e0" stroke-miterlimit="10"/>
  </g>
  <g>
    <path d="M198.06,447.3l2-1.17c46.1-27.12,90.94-56.85,106.7-90.52,4.36-12.13,3.76-27.21-1.83-44.78-8.27-26.04-25.61-49.07-48.81-64.84-24.1-16.37-59.89-36.43-93.6-39.01-6.19-.47-12.9-1.36-20.51-2.7-57.91-10.28-87.8-28.84-94.08-58.43-5.23-18.66-8.99-44.96-11.49-80.37l-.17-2.41,1.11,2.14c18.76,36.07,45.1,62.16,78.3,77.57,27.32,12.64,42.23,12.47,61.1,12.26,19.11-.22,40.78-.46,81.94,12.07,50.96,15.67,81.99,47.4,94.78,96.97,6.38-36.28,17.72-57.72,34.65-65.49,19.82-10.99,48.37,1.72,87.26,38.85l1.08,1.03-1.48-.17c-25.52-2.94-41.54,2.18-48.95,15.67-9.37,12.06-9.77,29.6-10.18,48.16-.4,17.99-.82,36.59-8.89,53.17-11.81,28.13-36.68,49.26-76.01,64.55-32,12.45-73.51,21.09-130.62,27.2l-2.3.25Z" fill="none" stroke="#86b3e0" stroke-miterlimit="10"/>
    <path d="M37.6,67.79c2.5,34.14,6.2,59.62,11.3,77.82,6.19,29.17,35.83,47.49,93.29,57.68,7.57,1.34,14.25,2.23,20.41,2.7,33.92,2.59,69.89,22.73,94.08,39.18,23.39,15.89,40.86,39.1,49.21,65.36,5.65,17.78,6.25,33.08,1.79,45.47-15.66,33.46-59.58,62.93-105.12,89.81,55.83-6.08,96.57-14.64,128.06-26.89,39.06-15.19,63.75-36.14,75.46-64.03,7.99-16.41,8.4-34.9,8.8-52.78.42-18.74.81-36.43,10.35-48.69,7.44-13.55,23.3-18.9,48.42-16.27-38-36.02-65.82-48.35-85.03-37.68l-.04.02c-16.97,7.78-28.26,29.73-34.49,67.09l-.4,2.4-.58-2.36c-12.33-50.52-43.31-82.76-94.68-98.56-41.01-12.48-62.6-12.23-81.64-12.02-19,.21-34,.38-61.53-12.35-32.75-15.2-58.87-40.73-77.66-75.9Z" fill="none" stroke="#86b3e0" stroke-miterlimit="10"/>
    <path d="M405.19,229.15c-5.73-1.75-8.98-7.83-7.23-13.57,1.74-5.73,7.82-8.98,13.56-7.23,5.73,1.74,8.98,7.83,7.23,13.56-.71,2.34-2.15,4.27-3.99,5.61s-4.08,2.1-6.41,2.1c-1.05,0-2.11-.15-3.16-.47Z" fill="none" stroke="#86b3e0" stroke-miterlimit="10"/>
    <path d="M408.36,208.87c-4.23,0-8.15,2.75-9.45,7-1.58,5.21,1.36,10.73,6.57,12.32s10.73-1.36,12.32-6.57c.29-.95.43-1.92.43-2.87,0-4.23-2.74-8.15-7-9.45-.96-.29-1.92-.43-2.87-.43Z" fill="none" stroke="#86b3e0" stroke-miterlimit="10"/>
  </g>
</svg>