<?xml version="1.0" encoding="UTF-8"?>
<svg id="Ps" xmlns="http://www.w3.org/2000/svg" viewBox="0 0 512 512">
  <g>
    <path d="M128.45,333.4v-86.16h-.21v-75.14c.07,0,.14-.02.21-.02v-55.18c-6.02.32-12.03.8-18.04,1.54-7.01.86-13.84,1.86-20.52,3.01-6.68,1.15-12.62,2.58-17.83,4.29-6.52,1.72-11.48,4.15-14.9,7.3-3.42,3.15-5.13,7.59-5.13,13.31v208.25c0,12.02,3.01,20.33,9.04,24.9,6.02,4.57,16.68,6.87,31.99,6.87,7.16,0,14-.36,20.52-1.07,6.51-.72,11.56-1.5,15.14-2.36v-49.53h-.28Z"/>
    <path d="M251.82,140.97c-22.8-16.46-56.34-24.69-100.62-24.69-2.42,0-4.93.03-7.48.07v54.32c3.81-.19,8.07-.29,12.85-.29,34.51,0,51.78,12.74,51.78,38.22,0,12.88-4.72,22.54-14.17,28.98-9.45,6.44-22.15,9.66-38.1,9.66h-12.36v52.81h17.25c19.54,0,37.04-2.15,52.51-6.44,15.46-4.29,28.57-10.45,39.32-18.46,10.75-8.01,18.97-17.67,24.67-28.98,5.69-11.3,8.55-23.83,8.55-37.57,0-28.62-11.4-51.16-34.19-67.63Z"/>
  </g>
  <g>
    <path d="M431.96,261.19c4.22,1.18,7.43,2.3,9.64,3.35,3.34-2.54,5.98-5.69,7.92-9.45,1.94-3.76,2.77-7.99,2.51-12.69s-2.09-8.97-5.42-12.49l-20.87,29.7c2.14.5,4.22,1.02,6.22,1.58Z"/>
    <path d="M314.54,295.48c9.64,8.1,24.19,14.5,43.64,19.21l31.1-36.63-9.34-2.3c-7.7-1.92-12.99-3.88-15.86-5.87-2.88-1.99-4.25-4.62-4.13-7.92.16-4.46,2.89-7.72,8.19-9.77,5.3-2.04,12.62-2.9,21.99-2.56,4.54.16,9.48.69,14.81,1.59,2.09.35,4.1.77,6.11,1.19l27.86-32.81c-.98-.53-1.98-1.04-3.03-1.53-6.06-2.81-13.35-5.01-21.86-6.62-8.52-1.6-17.59-2.58-27.22-2.92-25.95-.94-46.8,3.2-62.53,12.4-15.74,9.21-23.9,22.16-24.51,38.85-.54,15.05,4.38,26.95,14.79,35.68Z"/>
    <path d="M446.87,310.83c-8.21-8.22-21.52-15.31-39.88-21.28l-32.38,35.07,3.84,1.08c7.88,2.27,13.4,4.58,16.58,6.95,3.17,2.37,4.6,5.55,4.29,9.54-.73,9.39-10.57,13.34-29.52,11.87-7.08-.55-13.63-1.52-19.7-2.89l-30.76,33.32c5.48,2.38,11.75,4.41,18.83,6.06,9.1,2.12,19.25,3.62,30.46,4.49,28.56,2.22,50.55-.97,65.99-9.56,15.43-8.59,23.83-21.57,25.18-38.94,1.09-14.08-3.22-25.98-12.93-35.7Z"/>
    <path d="M314.21,332.61c-3.86,2.17-7.08,5.01-9.67,8.53-2.59,3.53-4.01,7.88-4.26,13.04-.28,5.64,1.34,10.67,4.88,15.09,1.66,2.08,3.67,4.01,6,5.81l27.26-31.25c-9.02-3.37-17.12-7.1-24.21-11.22Z"/>
  </g>
</svg>